<?xml version="1.0" encoding="UTF-8"?>
<!DOCTYPE svg PUBLIC "-//W3C//DTD SVG 1.1//EN" "http://www.w3.org/Graphics/SVG/1.1/DTD/svg11.dtd">
<svg xmlns="http://www.w3.org/2000/svg" version="1.1" width="512px" height="512px" style="shape-rendering:geometricPrecision; text-rendering:geometricPrecision; image-rendering:optimizeQuality; fill-rule:evenodd; clip-rule:evenodd" xmlns:xlink="http://www.w3.org/1999/xlink">
<g><path style="opacity:0.916" fill="#27292c" d="M 233.5,7.5 C 329.727,2.70363 405.893,39.037 462,116.5C 508.784,190.898 516.45,269.231 485,351.5C 448.53,431.958 387.03,481.458 300.5,500C 206.044,513.855 127.21,485.355 64,414.5C 9.59345,344.798 -5.73989,267.132 18,181.5C 48.7578,92.7416 109.591,36.575 200.5,13C 211.575,10.7308 222.575,8.89749 233.5,7.5 Z"/></g>
<g><path style="opacity:1" fill="#282828" d="M 232.5,11.5 C 338.025,6.69113 417.525,49.3578 471,139.5C 501.718,198.966 508.051,260.966 490,325.5C 459.456,415.712 397.956,472.212 305.5,495C 209.674,511.285 129.841,483.118 66,410.5C 13.9346,343.148 -1.06539,268.148 21,185.5C 51.5444,95.2884 113.044,38.7884 205.5,16C 214.642,14.4764 223.642,12.9764 232.5,11.5 Z"/></g>
<g><path style="opacity:1" fill="#dcdddd" d="M 255.5,98.5 C 227.147,97.8417 199.147,98.5084 171.5,100.5C 171.167,100.5 170.833,100.5 170.5,100.5C 170.196,99.8501 169.863,99.1835 169.5,98.5C 198.331,97.1705 226.997,97.1705 255.5,98.5 Z"/></g>
<g><path style="opacity:1" fill="#fcfdfd" d="M 255.5,98.5 C 263.402,109.959 271.069,121.625 278.5,133.5C 278.427,135.027 279.094,136.027 280.5,136.5C 286.417,145.331 292.083,154.331 297.5,163.5C 297.427,165.027 298.094,166.027 299.5,166.5C 305.417,175.331 311.083,184.331 316.5,193.5C 316.427,195.027 317.094,196.027 318.5,196.5C 324.403,205.295 330.069,214.295 335.5,223.5C 335.427,225.027 336.094,226.027 337.5,226.5C 339.653,228.794 341.32,231.46 342.5,234.5C 342.427,236.027 343.094,237.027 344.5,237.5C 347.744,242.928 351.244,248.261 355,253.5C 355.667,254.833 355.667,256.167 355,257.5C 353.905,258.693 353.072,260.027 352.5,261.5C 351.094,261.973 350.427,262.973 350.5,264.5C 324.597,304.628 298.931,344.961 273.5,385.5C 272.094,385.973 271.427,386.973 271.5,388.5C 269.347,390.794 267.68,393.46 266.5,396.5C 265.094,396.973 264.427,397.973 264.5,399.5C 261.586,403.658 258.919,407.991 256.5,412.5C 256.167,412.5 255.833,412.5 255.5,412.5C 227.147,413.158 199.147,412.492 171.5,410.5C 172.227,408.046 173.227,405.713 174.5,403.5C 175.906,403.027 176.573,402.027 176.5,400.5C 178.668,395.491 181.335,390.824 184.5,386.5C 186.245,384.967 187.245,382.967 187.5,380.5C 192.645,370.395 197.979,360.395 203.5,350.5C 204.906,350.027 205.573,349.027 205.5,347.5C 208.566,341.036 211.899,334.702 215.5,328.5C 216.906,328.027 217.573,327.027 217.5,325.5C 230.129,302.248 242.796,278.915 255.5,255.5C 241.238,229.975 227.238,204.309 213.5,178.5C 213.573,176.973 212.906,175.973 211.5,175.5C 198.504,151.509 185.504,127.509 172.5,103.5C 172.443,102.391 172.11,101.391 171.5,100.5C 199.147,98.5084 227.147,97.8417 255.5,98.5 Z"/></g>
<g><path style="opacity:1" fill="#6d6d6d" d="M 170.5,100.5 C 170.833,100.5 171.167,100.5 171.5,100.5C 172.11,101.391 172.443,102.391 172.5,103.5C 171.094,103.027 170.427,102.027 170.5,100.5 Z"/></g>
<g><path style="opacity:1" fill="#8a8a8a" d="M 278.5,133.5 C 279.906,133.973 280.573,134.973 280.5,136.5C 279.094,136.027 278.427,135.027 278.5,133.5 Z"/></g>
<g><path style="opacity:1" fill="#919191" d="M 297.5,163.5 C 298.906,163.973 299.573,164.973 299.5,166.5C 298.094,166.027 297.427,165.027 297.5,163.5 Z"/></g>
<g><path style="opacity:1" fill="#797979" d="M 211.5,175.5 C 212.906,175.973 213.573,176.973 213.5,178.5C 212.094,178.027 211.427,177.027 211.5,175.5 Z"/></g>
<g><path style="opacity:1" fill="#9a9b9b" d="M 316.5,193.5 C 317.906,193.973 318.573,194.973 318.5,196.5C 317.094,196.027 316.427,195.027 316.5,193.5 Z"/></g>
<g><path style="opacity:1" fill="#a2a3a3" d="M 335.5,223.5 C 336.906,223.973 337.573,224.973 337.5,226.5C 336.094,226.027 335.427,225.027 335.5,223.5 Z"/></g>
<g><path style="opacity:1" fill="#a0a1a1" d="M 342.5,234.5 C 343.906,234.973 344.573,235.973 344.5,237.5C 343.094,237.027 342.427,236.027 342.5,234.5 Z"/></g>
<g><path style="opacity:1" fill="#6e6e6e" d="M 352.5,261.5 C 352.573,263.027 351.906,264.027 350.5,264.5C 350.427,262.973 351.094,261.973 352.5,261.5 Z"/></g>
<g><path style="opacity:1" fill="#949494" d="M 217.5,325.5 C 217.573,327.027 216.906,328.027 215.5,328.5C 215.427,326.973 216.094,325.973 217.5,325.5 Z"/></g>
<g><path style="opacity:1" fill="#939393" d="M 205.5,347.5 C 205.573,349.027 204.906,350.027 203.5,350.5C 203.427,348.973 204.094,347.973 205.5,347.5 Z"/></g>
<g><path style="opacity:1" fill="#bfc0c0" d="M 187.5,380.5 C 187.245,382.967 186.245,384.967 184.5,386.5C 184.755,384.033 185.755,382.033 187.5,380.5 Z"/></g>
<g><path style="opacity:1" fill="#7e7f7f" d="M 273.5,385.5 C 273.573,387.027 272.906,388.027 271.5,388.5C 271.427,386.973 272.094,385.973 273.5,385.5 Z"/></g>
<g><path style="opacity:1" fill="#808080" d="M 266.5,396.5 C 266.573,398.027 265.906,399.027 264.5,399.5C 264.427,397.973 265.094,396.973 266.5,396.5 Z"/></g>
<g><path style="opacity:1" fill="#878888" d="M 176.5,400.5 C 176.573,402.027 175.906,403.027 174.5,403.5C 174.427,401.973 175.094,400.973 176.5,400.5 Z"/></g>
<g><path style="opacity:1" fill="#dddede" d="M 171.5,410.5 C 199.147,412.492 227.147,413.158 255.5,412.5C 227.005,413.498 198.338,413.831 169.5,413.5C 169.427,411.973 170.094,410.973 171.5,410.5 Z"/></g>
<g><path style="opacity:1" fill="#4f4f4f" d="M 255.5,412.5 C 255.833,412.5 256.167,412.5 256.5,412.5C 242.349,413.833 227.849,414.499 213,414.5C 198.329,414.5 183.829,414.167 169.5,413.5C 198.338,413.831 227.005,413.498 255.5,412.5 Z"/></g>
</svg>
