<?xml version="1.0" encoding="UTF-8"?>
<!DOCTYPE svg PUBLIC "-//W3C//DTD SVG 1.1//EN" "http://www.w3.org/Graphics/SVG/1.1/DTD/svg11.dtd">
<svg xmlns="http://www.w3.org/2000/svg" version="1.1" width="512px" height="512px" style="shape-rendering:geometricPrecision; text-rendering:geometricPrecision; image-rendering:optimizeQuality; fill-rule:evenodd; clip-rule:evenodd" xmlns:xlink="http://www.w3.org/1999/xlink">
<g><path style="opacity:1" fill="#292a2e" d="M 299.5,500.5 C 269.824,504.471 240.157,504.471 210.5,500.5C 127.791,483.275 67.6246,436.942 30,361.5C 6.31509,309.449 0.648424,255.449 13,199.5C 35.934,111.898 89.7673,52.0645 174.5,20C 252.436,-4.43662 325.77,5.23004 394.5,49C 475.446,107.754 511.28,187.254 502,287.5C 487.825,375.968 440.992,440.468 361.5,481C 341.701,490.283 321.034,496.783 299.5,500.5 Z"/></g>
<g><path style="opacity:1" fill="#fdfdfd" d="M 246.5,119.5 C 280.81,117.14 311.477,126.307 338.5,147C 361.966,169.775 374.799,197.608 377,230.5C 380.428,263.259 375.428,294.593 362,324.5C 358.833,329.5 355.667,334.5 352.5,339.5C 360.86,348.527 369.527,357.194 378.5,365.5C 369.984,374.182 361.65,383.016 353.5,392C 352.5,392.667 351.5,392.667 350.5,392C 340.988,383.154 331.488,374.321 322,365.5C 287.89,383.223 252.39,386.389 215.5,375C 176.039,360.534 151.873,332.7 143,291.5C 138.053,262.759 138.387,234.092 144,205.5C 154.424,164.746 179.59,137.912 219.5,125C 228.598,122.969 237.598,121.136 246.5,119.5 Z"/></g>
<g><path style="opacity:1" fill="#292a2e" d="M 246.5,163.5 C 288.757,160.927 314.59,180.261 324,221.5C 326.588,237.132 326.921,252.798 325,268.5C 324.244,280.693 321.077,292.193 315.5,303C 314.092,303.315 312.759,302.982 311.5,302C 304.47,294.635 297.136,287.635 289.5,281C 288.833,280.333 288.167,280.333 287.5,281C 279.282,289.929 270.949,298.762 262.5,307.5C 270.016,315.85 278.016,323.683 286.5,331C 282.196,333.771 277.529,335.771 272.5,337C 229.178,341.244 202.678,322.077 193,279.5C 188.888,254.074 190.555,229.074 198,204.5C 207.636,183.025 223.802,169.359 246.5,163.5 Z"/></g>
<g><path style="opacity:0.862" fill="#3b3e44" d="M 210.5,500.5 C 240.157,504.471 269.824,504.471 299.5,500.5C 293.736,502.187 287.736,503.353 281.5,504C 264.167,504.667 246.833,504.667 229.5,504C 222.938,503.33 216.604,502.163 210.5,500.5 Z"/></g>
</svg>
