<?xml version="1.0" standalone="no"?>
<!DOCTYPE svg PUBLIC "-//W3C//DTD SVG 20010904//EN"
 "http://www.w3.org/TR/2001/REC-SVG-20010904/DTD/svg10.dtd">
<svg version="1.0" xmlns="http://www.w3.org/2000/svg"
 width="556.000000pt" height="556.000000pt" viewBox="0 0 556.000000 556.000000"
 preserveAspectRatio="xMidYMid meet">
<metadata>
Created by potrace 1.14, written by Peter Selinger 2001-2017
</metadata>
<g transform="translate(0.000000,556.000000) scale(0.100000,-0.100000)"
fill="#000000" stroke="none">
<path d="M2650 5476 c-85 -40 -400 -196 -700 -347 l-545 -274 -506 -5 -505 -5
-41 -27 c-55 -36 -70 -73 -93 -234 -18 -124 -20 -191 -20 -604 0 -501 4 -561
66 -925 254 -1513 1064 -2537 2374 -3001 119 -42 165 -43 302 -4 437 122 894
416 1236 792 562 620 916 1501 1041 2588 38 328 45 470 45 896 l1 420 -27 41
c-50 76 -42 75 -558 74 l-458 -2 -691 346 c-538 268 -700 345 -729 345 -25 0
-86 -23 -192 -74z m-19 -1571 c71 -41 133 -75 139 -75 10 0 189 100 248 138
l22 14 0 -158 -1 -159 -132 -75 c-73 -41 -137 -75 -142 -75 -6 0 -70 34 -143
75 l-132 75 0 158 c0 86 3 157 6 157 3 0 64 -34 135 -75z m-859 -586 l117 -68
111 65 c62 35 125 71 141 79 l29 16 0 -158 0 -158 -134 -78 c-73 -42 -138 -77
-142 -77 -5 0 -70 36 -144 79 l-135 79 -3 157 -3 156 23 -12 c13 -7 76 -43
140 -80z m1766 -4 l102 -60 0 -158 c0 -87 -3 -156 -7 -154 -5 2 -65 37 -135
77 l-128 72 0 160 0 160 33 -19 c17 -10 78 -46 135 -78z m382 -62 l-1 -158
-134 -77 -135 -77 0 157 1 157 132 77 c73 42 133 77 135 77 1 1 2 -70 2 -156z
m-1280 -442 c66 -39 125 -71 131 -71 5 0 67 33 137 74 l127 74 3 -151 c1 -83
-1 -154 -6 -159 -5 -5 -67 -43 -138 -83 l-128 -74 -66 36 c-36 20 -96 55 -135
78 l-70 41 -3 158 c-2 134 0 157 12 153 8 -3 69 -37 136 -76z m-889 -526 c71
-41 133 -75 138 -75 6 0 65 32 131 71 67 39 128 73 136 76 12 4 14 -19 12
-153 l-3 -158 -70 -41 c-38 -23 -99 -58 -135 -78 l-66 -36 -142 81 -142 81 0
154 c0 84 3 153 6 153 3 0 64 -34 135 -75z m1758 -1 l131 -76 0 -159 0 -160
-42 26 c-24 14 -85 49 -135 78 l-93 52 0 158 c0 86 2 157 4 157 3 0 64 -34
135 -76z m404 -235 c-11 -10 -251 -149 -258 -149 -3 0 -5 69 -5 153 l0 153
133 77 132 76 3 -151 c1 -83 -1 -155 -5 -159z m-1254 -253 l111 -65 129 74
c72 41 133 75 136 75 3 0 5 -69 5 -153 l0 -152 -134 -78 c-73 -42 -137 -77
-141 -77 -5 0 -68 35 -142 77 l-133 77 0 158 0 159 29 -15 c16 -9 79 -45 140
-80z"/>
</g>
</svg>
